name C:\Users\Graham\Documents\MATLAB\MOtoNMS_v2_2\MyData\ElaboratedData\S7\17-05-22\dynamicElaborations\rightStSt\\EA2\EA2.mot
datacolumns 55
datarows 10
range 0.41000000000000 0.42500000000000
endheader
time	    ground_force1_vx	    ground_force1_vy	    ground_force1_vz	    ground_force1_px	    ground_force1_py	    ground_force1_pz	    ground_force2_vx	    ground_force2_vy	    ground_force2_vz	    ground_force2_px	    ground_force2_py	    ground_force2_pz	    ground_torque1_x	    ground_torque1_y	    ground_torque1_z	    ground_torque2_x	    ground_torque2_y	    ground_torque2_z	apo_force_vx	apo_force_vy	apo_force_vz	apo_force_px	apo_force_py	apo_force_pz	apo_torque_x	apo_torque_y	apo_torque_z	1_apo_force_vx	1_apo_force_vy	1_apo_force_vz	1_apo_force_px	1_apo_force_py	1_apo_force_pz	1_apo_torque_x	1_apo_torque_y	1_apo_torque_z	apo_group_force_vx	apo_group_force_vy	apo_group_force_vz	apo_group_force_px	apo_group_force_py	apo_group_force_pz	apo_group_torque_x	apo_group_torque_y	apo_group_torque_z	1_apo_group_force_vx	1_apo_group_force_vy	1_apo_group_force_vz	1_apo_group_force_px	1_apo_group_force_py	1_apo_group_force_pz	1_apo_group_torque_x	1_apo_group_torque_y	1_apo_group_torque_z	
0.41000000000000	3.05121415000000	16.11569182000000	1.86394592000000	0.00000000000000	0.00000000000000	0.00000000000000	64.92266891000000	689.31736994000005	52.74909108000000	0.05424371000000	-0.00000000000000	-0.10042780000000	-0.00000000000000	-0.31875002000000	0.00000000000000	-0.00000000000000	-1.02374353000000	0.00000000000000	0.00000000000000	0.00000000000000	0.00000000000000	0.00000000000000	0.00000000000000	0.00000000000000	0.00000000000000	0.00000000000000	-0.66239273127294	0.00000000000000	0.00000000000000	0.00000000000000	0.00000000000000	0.00000000000000	0.00000000000000	0.00000000000000	0.00000000000000	1.75498764389389	0.00000000000000	0.00000000000000	0.00000000000000	0.00000000000000	0.00000000000000	0.00000000000000	0.00000000000000	0.00000000000000	0.66239273127294	0.00000000000000	0.00000000000000	0.00000000000000	0.00000000000000	0.00000000000000	0.00000000000000	0.00000000000000	0.00000000000000	-1.75498764389389	
0.41166700000000	3.76353607000000	21.95438071000000	2.40469873000000	0.00000000000000	0.00000000000000	0.00000000000000	65.93682233000000	689.12443079000002	52.79117229000000	0.05320571000000	-0.00000000000000	-0.10047236000000	-0.00000000000000	-0.42865677000000	0.00000000000000	-0.00000000000000	-1.04003671000000	0.00000000000000	0.00000000000000	0.00000000000000	0.00000000000000	0.00000000000000	0.00000000000000	0.00000000000000	0.00000000000000	0.00000000000000	-0.67482797176672	0.00000000000000	0.00000000000000	0.00000000000000	0.00000000000000	0.00000000000000	0.00000000000000	0.00000000000000	0.00000000000000	1.80957649043668	0.00000000000000	0.00000000000000	0.00000000000000	0.00000000000000	0.00000000000000	0.00000000000000	0.00000000000000	0.00000000000000	0.67482797176672	0.00000000000000	0.00000000000000	0.00000000000000	0.00000000000000	0.00000000000000	0.00000000000000	0.00000000000000	0.00000000000000	-1.80957649043668	
0.41333300000000	4.45450935000000	28.43060305000000	2.96936807000000	0.30076334000000	-0.00000000000000	0.07886175000000	66.98522244999999	688.80765572999996	52.81955441000000	0.05217805000000	-0.00000000000000	-0.10051243000000	-0.00000000000000	-0.00690711000000	0.00000000000000	-0.00000000000000	-1.05783698000000	0.00000000000000	0.00000000000000	0.00000000000000	0.00000000000000	0.00000000000000	0.00000000000000	0.00000000000000	0.00000000000000	0.00000000000000	-0.68726321226050	0.00000000000000	0.00000000000000	0.00000000000000	0.00000000000000	0.00000000000000	0.00000000000000	0.00000000000000	0.00000000000000	1.86416533697946	0.00000000000000	0.00000000000000	0.00000000000000	0.00000000000000	0.00000000000000	0.00000000000000	0.00000000000000	0.00000000000000	0.68726321226050	0.00000000000000	0.00000000000000	0.00000000000000	0.00000000000000	0.00000000000000	0.00000000000000	0.00000000000000	0.00000000000000	-1.86416533697946	
0.41500000000000	5.09076568000000	35.43437059000000	3.54030179000000	0.31034152000000	-0.00000000000000	0.07965832000000	68.06667830000001	688.36244081999996	52.83304748000000	0.05116168000000	-0.00000000000000	-0.10054788000000	0.00000000000000	0.01691790000000	-0.00000000000000	-0.00000000000000	-1.07715589000000	0.00000000000000	0.00000000000000	0.00000000000000	0.00000000000000	0.00000000000000	0.00000000000000	0.00000000000000	0.00000000000000	0.00000000000000	-0.69969845275428	0.00000000000000	0.00000000000000	0.00000000000000	0.00000000000000	0.00000000000000	0.00000000000000	0.00000000000000	0.00000000000000	1.91875418352225	0.00000000000000	0.00000000000000	0.00000000000000	0.00000000000000	0.00000000000000	0.00000000000000	0.00000000000000	0.00000000000000	0.69969845275428	0.00000000000000	0.00000000000000	0.00000000000000	0.00000000000000	0.00000000000000	0.00000000000000	0.00000000000000	0.00000000000000	-1.91875418352225	
0.41666700000000	5.64047409000000	42.84359506000000	4.09963701000000	0.31857936000000	-0.00000000000000	0.08032268000000	69.17985098000000	687.78410429999997	52.83046920000000	0.05015748000000	-0.00000000000000	-0.10057855000000	0.00000000000000	0.04446617000000	-0.00000000000000	-0.00000000000000	-1.09800038000000	0.00000000000000	0.00000000000000	0.00000000000000	0.00000000000000	0.00000000000000	0.00000000000000	0.00000000000000	0.00000000000000	0.00000000000000	-0.71213369324806	0.00000000000000	0.00000000000000	0.00000000000000	0.00000000000000	0.00000000000000	0.00000000000000	0.00000000000000	0.00000000000000	1.97334303006503	0.00000000000000	0.00000000000000	0.00000000000000	0.00000000000000	0.00000000000000	0.00000000000000	0.00000000000000	0.00000000000000	0.71213369324806	0.00000000000000	0.00000000000000	0.00000000000000	0.00000000000000	0.00000000000000	0.00000000000000	0.00000000000000	0.00000000000000	-1.97334303006503	
0.41833300000000	6.07557329000000	50.53425666000000	4.63058990000000	0.32576596000000	-0.00000000000000	0.08088583000000	70.32325440000000	687.06789819999995	52.81065065000000	0.04916627000000	-0.00000000000000	-0.10060431000000	0.00000000000000	0.07439910000000	-0.00000000000000	-0.00000000000000	-1.12037291000000	0.00000000000000	0.00000000000000	0.00000000000000	0.00000000000000	0.00000000000000	0.00000000000000	0.00000000000000	0.00000000000000	0.00000000000000	-0.72456893374184	0.00000000000000	0.00000000000000	0.00000000000000	0.00000000000000	0.00000000000000	0.00000000000000	0.00000000000000	0.00000000000000	2.02793187660782	0.00000000000000	0.00000000000000	0.00000000000000	0.00000000000000	0.00000000000000	0.00000000000000	0.00000000000000	0.00000000000000	0.72456893374184	0.00000000000000	0.00000000000000	0.00000000000000	0.00000000000000	0.00000000000000	0.00000000000000	0.00000000000000	0.00000000000000	-2.02793187660782	
0.42000000000000	6.37353251000000	58.38981934000000	5.11855208000000	0.33211051000000	-0.00000000000000	0.08137019000000	71.49525642000000	686.20902093999996	52.77244190000000	0.04818876000000	-0.00000000000000	-0.10062506000000	0.00000000000000	0.10534716000000	-0.00000000000000	-0.00000000000000	-1.14427167000000	0.00000000000000	0.00000000000000	0.00000000000000	0.00000000000000	0.00000000000000	0.00000000000000	0.00000000000000	0.00000000000000	0.00000000000000	-0.73714282432544	0.00000000000000	0.00000000000000	0.00000000000000	0.00000000000000	0.00000000000000	0.00000000000000	0.00000000000000	0.00000000000000	2.08246074269023	0.00000000000000	0.00000000000000	0.00000000000000	0.00000000000000	0.00000000000000	0.00000000000000	0.00000000000000	0.00000000000000	0.73714282432544	0.00000000000000	0.00000000000000	0.00000000000000	0.00000000000000	0.00000000000000	0.00000000000000	0.00000000000000	0.00000000000000	-2.08246074269023	
0.42166700000000	6.51847275000000	66.30887118000000	5.55188267000000	0.33776803000000	-0.00000000000000	0.08179242000000	72.69408041000000	685.20263081999997	52.71471772000000	0.04722562000000	-0.00000000000000	-0.10064068000000	0.00000000000000	0.13600330000000	-0.00000000000000	-0.00000000000000	-1.16969074000000	0.00000000000000	0.00000000000000	0.00000000000000	0.00000000000000	0.00000000000000	0.00000000000000	0.00000000000000	0.00000000000000	0.00000000000000	-0.75218930817753	0.00000000000000	0.00000000000000	0.00000000000000	0.00000000000000	0.00000000000000	0.00000000000000	0.00000000000000	0.00000000000000	2.13591995722936	0.00000000000000	0.00000000000000	0.00000000000000	0.00000000000000	0.00000000000000	0.00000000000000	0.00000000000000	0.00000000000000	0.75218930817753	0.00000000000000	0.00000000000000	0.00000000000000	0.00000000000000	0.00000000000000	0.00000000000000	0.00000000000000	0.00000000000000	-2.13591995722936	
0.42333300000000	6.50160044000000	74.21042018999999	5.92234905000000	0.34285581000000	-0.00000000000000	0.08216512000000	73.91780718000000	684.04386036999995	52.63638319000000	0.04627740000000	-0.00000000000000	-0.10065109000000	0.00000000000000	0.16520328000000	-0.00000000000000	-0.00000000000000	-1.19662019000000	0.00000000000000	0.00000000000000	0.00000000000000	0.00000000000000	0.00000000000000	0.00000000000000	0.00000000000000	0.00000000000000	0.00000000000000	-0.76723579202963	0.00000000000000	0.00000000000000	0.00000000000000	0.00000000000000	0.00000000000000	0.00000000000000	0.00000000000000	0.00000000000000	2.18937917176849	0.00000000000000	0.00000000000000	0.00000000000000	0.00000000000000	0.00000000000000	0.00000000000000	0.00000000000000	0.00000000000000	0.76723579202963	0.00000000000000	0.00000000000000	0.00000000000000	0.00000000000000	0.00000000000000	0.00000000000000	0.00000000000000	0.00000000000000	-2.18937917176849	
0.42500000000000	6.32100287000000	82.03668284000000	6.22522258000000	0.34746412000000	-0.00000000000000	0.08249801000000	75.16437746000000	682.72783172000004	52.53637921000000	0.04534459000000	-0.00000000000000	-0.10065620000000	0.00000000000000	0.19198437000000	-0.00000000000000	-0.00000000000000	-1.22504630000000	0.00000000000000	0.00000000000000	0.00000000000000	0.00000000000000	0.00000000000000	0.00000000000000	0.00000000000000	0.00000000000000	0.00000000000000	-0.78228227588172	0.00000000000000	0.00000000000000	0.00000000000000	0.00000000000000	0.00000000000000	0.00000000000000	0.00000000000000	0.00000000000000	2.24283838630762	0.00000000000000	0.00000000000000	0.00000000000000	0.00000000000000	0.00000000000000	0.00000000000000	0.00000000000000	0.00000000000000	0.78228227588172	0.00000000000000	0.00000000000000	0.00000000000000	0.00000000000000	0.00000000000000	0.00000000000000	0.00000000000000	0.00000000000000	-2.24283838630762	
